<svg width="0" height="0"><symbol xmlns="http://www.w3.org/2000/svg" id="chevron" fill="inherit" viewBox="0 0 24 24"><path d="M15.125 21.1 6.7 12.7a.871.871 0 0 1-.212-.325A1.098 1.098 0 0 1 6.425 12a1.1 1.1 0 0 1 .063-.375.872.872 0 0 1 .212-.325l8.425-8.425c.233-.233.525-.35.875-.35s.65.125.9.375.375.542.375.875a1.2 1.2 0 0 1-.375.875L9.55 12l7.35 7.35c.233.233.35.52.35.862 0 .342-.125.638-.375.888a1.2 1.2 0 0 1-.875.375 1.2 1.2 0 0 1-.875-.375Z"/></symbol><symbol xmlns="http://www.w3.org/2000/svg" id="close" fill="inherit" viewBox="0 0 44 44"><path d="M43.064 40.183 2.88 0-.614 3.494 39.57 43.678l3.494-3.495Z"/><path d="M40.443 0 .26 40.184l3.494 3.494L43.937 3.494 40.443 0Z"/></symbol><symbol xmlns="http://www.w3.org/2000/svg" id="search" fill="none" viewBox="0 0 24 24"><path stroke="#fff" stroke-linecap="round" stroke-linejoin="round" stroke-width="1.5" d="M10 18a8 8 0 1 0 0-16 8 8 0 0 0 0 16Zm12 4-6-6"/></symbol></svg>